<?xml version="1.0" encoding="UTF-8" standalone="no"?>
<!DOCTYPE svg PUBLIC "-//W3C//DTD SVG 1.1//EN"
 "http://www.w3.org/Graphics/SVG/1.1/DTD/svg11.dtd">
<!-- Generated by graphviz version 2.26.3 (20100126.1600)
 -->
<!-- Title: controllers_diagram Pages: 1 -->
<svg width="790pt" height="829pt"
 viewBox="0.00 0.00 790.00 828.91" xmlns="http://www.w3.org/2000/svg" xmlns:xlink="http://www.w3.org/1999/xlink">
<g id="graph1" class="graph" transform="scale(1 1) rotate(0) translate(4 824.908)">
<title>controllers_diagram</title>
<polygon fill="white" stroke="white" points="-4,5 -4,-824.908 787,-824.908 787,5 -4,5"/>
<!-- _diagram_info -->
<g id="node1" class="node"><title>_diagram_info</title>
<text text-anchor="start" x="539" y="-237.3" font-family="Times Roman,serif" font-size="13.00">Controllers diagram</text>
<text text-anchor="start" x="539" y="-220.3" font-family="Times Roman,serif" font-size="13.00">Date: Nov 28 2013 &#45; 13:23</text>
<text text-anchor="start" x="539" y="-203.3" font-family="Times Roman,serif" font-size="13.00">Migration version: 20131127110130</text>
<text text-anchor="start" x="539" y="-186.3" font-family="Times Roman,serif" font-size="13.00">Generated by RailRoady 1.1.1</text>
<text text-anchor="start" x="539" y="-169.3" font-family="Times Roman,serif" font-size="13.00">http://railroady.prestonlee.com</text>
</g>
<!-- TypesController -->
<g id="node2" class="node"><title>TypesController</title>
<polyline fill="none" stroke="black" points="34.8764,-573.408 134.876,-573.408 "/>
<path fill="none" stroke="black" d="M134.876,-573.408C140.876,-573.408 146.876,-579.408 146.876,-585.408"/>
<polyline fill="none" stroke="black" points="146.876,-585.408 146.876,-807.408 "/>
<path fill="none" stroke="black" d="M146.876,-807.408C146.876,-813.408 140.876,-819.408 134.876,-819.408"/>
<polyline fill="none" stroke="black" points="134.876,-819.408 34.8764,-819.408 "/>
<path fill="none" stroke="black" d="M34.8764,-819.408C28.8764,-819.408 22.8764,-813.408 22.8764,-807.408"/>
<polyline fill="none" stroke="black" points="22.8764,-807.408 22.8764,-585.408 "/>
<path fill="none" stroke="black" d="M22.8764,-585.408C22.8764,-579.408 28.8764,-573.408 34.8764,-573.408"/>
<text text-anchor="middle" x="84.8764" y="-802.808" font-family="Times Roman,serif" font-size="14.00">TypesController</text>
<polyline fill="none" stroke="black" points="22.8764,-793.408 146.876,-793.408 "/>
<text text-anchor="start" x="30.8764" y="-776.808" font-family="Times Roman,serif" font-size="14.00">create</text>
<text text-anchor="start" x="30.8764" y="-758.808" font-family="Times Roman,serif" font-size="14.00">destroy</text>
<text text-anchor="start" x="30.8764" y="-740.808" font-family="Times Roman,serif" font-size="14.00">edit</text>
<text text-anchor="start" x="30.8764" y="-722.808" font-family="Times Roman,serif" font-size="14.00">index</text>
<text text-anchor="start" x="30.8764" y="-704.808" font-family="Times Roman,serif" font-size="14.00">new</text>
<text text-anchor="start" x="30.8764" y="-686.808" font-family="Times Roman,serif" font-size="14.00">show</text>
<text text-anchor="start" x="30.8764" y="-668.808" font-family="Times Roman,serif" font-size="14.00">update</text>
<polyline fill="none" stroke="black" points="22.8764,-659.408 146.876,-659.408 "/>
<polyline fill="none" stroke="black" points="22.8764,-635.408 146.876,-635.408 "/>
<text text-anchor="start" x="30.8764" y="-618.808" font-family="Times Roman,serif" font-size="14.00">_layout</text>
<text text-anchor="start" x="30.8764" y="-600.808" font-family="Times Roman,serif" font-size="14.00">set_type</text>
<text text-anchor="start" x="30.8764" y="-582.808" font-family="Times Roman,serif" font-size="14.00">type_params</text>
</g>
<!-- SensorsController -->
<g id="node3" class="node"><title>SensorsController</title>
<polyline fill="none" stroke="black" points="360.777,-303.138 475.777,-303.138 "/>
<path fill="none" stroke="black" d="M475.777,-303.138C481.777,-303.138 487.777,-309.138 487.777,-315.138"/>
<polyline fill="none" stroke="black" points="487.777,-315.138 487.777,-537.138 "/>
<path fill="none" stroke="black" d="M487.777,-537.138C487.777,-543.138 481.777,-549.138 475.777,-549.138"/>
<polyline fill="none" stroke="black" points="475.777,-549.138 360.777,-549.138 "/>
<path fill="none" stroke="black" d="M360.777,-549.138C354.777,-549.138 348.777,-543.138 348.777,-537.138"/>
<polyline fill="none" stroke="black" points="348.777,-537.138 348.777,-315.138 "/>
<path fill="none" stroke="black" d="M348.777,-315.138C348.777,-309.138 354.777,-303.138 360.777,-303.138"/>
<text text-anchor="middle" x="418.277" y="-532.538" font-family="Times Roman,serif" font-size="14.00">SensorsController</text>
<polyline fill="none" stroke="black" points="348.777,-523.138 487.777,-523.138 "/>
<text text-anchor="start" x="356.777" y="-506.538" font-family="Times Roman,serif" font-size="14.00">create</text>
<text text-anchor="start" x="356.777" y="-488.538" font-family="Times Roman,serif" font-size="14.00">destroy</text>
<text text-anchor="start" x="356.777" y="-470.538" font-family="Times Roman,serif" font-size="14.00">edit</text>
<text text-anchor="start" x="356.777" y="-452.538" font-family="Times Roman,serif" font-size="14.00">index</text>
<text text-anchor="start" x="356.777" y="-434.538" font-family="Times Roman,serif" font-size="14.00">new</text>
<text text-anchor="start" x="356.777" y="-416.538" font-family="Times Roman,serif" font-size="14.00">show</text>
<text text-anchor="start" x="356.777" y="-398.538" font-family="Times Roman,serif" font-size="14.00">update</text>
<polyline fill="none" stroke="black" points="348.777,-389.138 487.777,-389.138 "/>
<polyline fill="none" stroke="black" points="348.777,-365.138 487.777,-365.138 "/>
<text text-anchor="start" x="356.777" y="-348.538" font-family="Times Roman,serif" font-size="14.00">_layout</text>
<text text-anchor="start" x="356.777" y="-330.538" font-family="Times Roman,serif" font-size="14.00">sensor_params</text>
<text text-anchor="start" x="356.777" y="-312.538" font-family="Times Roman,serif" font-size="14.00">set_sensor</text>
</g>
<!-- UnitsController -->
<g id="node4" class="node"><title>UnitsController</title>
<polyline fill="none" stroke="black" points="357.617,-34.3028 454.617,-34.3028 "/>
<path fill="none" stroke="black" d="M454.617,-34.3028C460.617,-34.3028 466.617,-40.3028 466.617,-46.3028"/>
<polyline fill="none" stroke="black" points="466.617,-46.3028 466.617,-268.303 "/>
<path fill="none" stroke="black" d="M466.617,-268.303C466.617,-274.303 460.617,-280.303 454.617,-280.303"/>
<polyline fill="none" stroke="black" points="454.617,-280.303 357.617,-280.303 "/>
<path fill="none" stroke="black" d="M357.617,-280.303C351.617,-280.303 345.617,-274.303 345.617,-268.303"/>
<polyline fill="none" stroke="black" points="345.617,-268.303 345.617,-46.3028 "/>
<path fill="none" stroke="black" d="M345.617,-46.3028C345.617,-40.3028 351.617,-34.3028 357.617,-34.3028"/>
<text text-anchor="middle" x="406.117" y="-263.703" font-family="Times Roman,serif" font-size="14.00">UnitsController</text>
<polyline fill="none" stroke="black" points="345.617,-254.303 466.617,-254.303 "/>
<text text-anchor="start" x="353.617" y="-237.703" font-family="Times Roman,serif" font-size="14.00">create</text>
<text text-anchor="start" x="353.617" y="-219.703" font-family="Times Roman,serif" font-size="14.00">destroy</text>
<text text-anchor="start" x="353.617" y="-201.703" font-family="Times Roman,serif" font-size="14.00">edit</text>
<text text-anchor="start" x="353.617" y="-183.703" font-family="Times Roman,serif" font-size="14.00">index</text>
<text text-anchor="start" x="353.617" y="-165.703" font-family="Times Roman,serif" font-size="14.00">new</text>
<text text-anchor="start" x="353.617" y="-147.703" font-family="Times Roman,serif" font-size="14.00">show</text>
<text text-anchor="start" x="353.617" y="-129.703" font-family="Times Roman,serif" font-size="14.00">update</text>
<polyline fill="none" stroke="black" points="345.617,-120.303 466.617,-120.303 "/>
<polyline fill="none" stroke="black" points="345.617,-96.3028 466.617,-96.3028 "/>
<text text-anchor="start" x="353.617" y="-79.7028" font-family="Times Roman,serif" font-size="14.00">_layout</text>
<text text-anchor="start" x="353.617" y="-61.7028" font-family="Times Roman,serif" font-size="14.00">set_unit</text>
<text text-anchor="start" x="353.617" y="-43.7028" font-family="Times Roman,serif" font-size="14.00">unit_params</text>
</g>
<!-- ApplicationController -->
<g id="node5" class="node"><title>ApplicationController</title>
<polyline fill="none" stroke="black" points="13,-377.969 181,-377.969 "/>
<path fill="none" stroke="black" d="M181,-377.969C187,-377.969 193,-383.969 193,-389.969"/>
<polyline fill="none" stroke="black" points="193,-389.969 193,-467.969 "/>
<path fill="none" stroke="black" d="M193,-467.969C193,-473.969 187,-479.969 181,-479.969"/>
<polyline fill="none" stroke="black" points="181,-479.969 13,-479.969 "/>
<path fill="none" stroke="black" d="M13,-479.969C7,-479.969 1,-473.969 1,-467.969"/>
<polyline fill="none" stroke="black" points="1,-467.969 1,-389.969 "/>
<path fill="none" stroke="black" d="M1,-389.969C1,-383.969 7,-377.969 13,-377.969"/>
<text text-anchor="middle" x="97" y="-463.369" font-family="Times Roman,serif" font-size="14.00">ApplicationController</text>
<polyline fill="none" stroke="black" points="1,-453.969 193,-453.969 "/>
<text text-anchor="start" x="9" y="-437.369" font-family="Times Roman,serif" font-size="14.00">update_sanitized_params</text>
<polyline fill="none" stroke="black" points="1,-427.969 193,-427.969 "/>
<polyline fill="none" stroke="black" points="1,-403.969 193,-403.969 "/>
<text text-anchor="start" x="9" y="-387.369" font-family="Times Roman,serif" font-size="14.00">_layout</text>
</g>
<!-- ApplicationController&#45;&gt;TypesController -->
<g id="edge2" class="edge"><title>ApplicationController&#45;&gt;TypesController</title>
<path fill="none" stroke="black" d="M94.6768,-480.217C93.4736,-506.76 91.9479,-540.414 90.4608,-573.219"/>
</g>
<!-- ApplicationController&#45;&gt;SensorsController -->
<g id="edge4" class="edge"><title>ApplicationController&#45;&gt;SensorsController</title>
<path fill="none" stroke="black" d="M193.394,-428.119C243.391,-427.679 303.329,-427.151 348.749,-426.75"/>
</g>
<!-- ApplicationController&#45;&gt;UnitsController -->
<g id="edge6" class="edge"><title>ApplicationController&#45;&gt;UnitsController</title>
<path fill="none" stroke="black" d="M155.143,-377.871C209.533,-330.069 290.448,-258.958 345.596,-210.492"/>
</g>
<!-- AuthenticationTokensController -->
<g id="node6" class="node"><title>AuthenticationTokensController</title>
<polyline fill="none" stroke="black" points="301.348,-609.624 512.348,-609.624 "/>
<path fill="none" stroke="black" d="M512.348,-609.624C518.348,-609.624 524.348,-615.624 524.348,-621.624"/>
<polyline fill="none" stroke="black" points="524.348,-621.624 524.348,-771.624 "/>
<path fill="none" stroke="black" d="M524.348,-771.624C524.348,-777.624 518.348,-783.624 512.348,-783.624"/>
<polyline fill="none" stroke="black" points="512.348,-783.624 301.348,-783.624 "/>
<path fill="none" stroke="black" d="M301.348,-783.624C295.348,-783.624 289.348,-777.624 289.348,-771.624"/>
<polyline fill="none" stroke="black" points="289.348,-771.624 289.348,-621.624 "/>
<path fill="none" stroke="black" d="M289.348,-621.624C289.348,-615.624 295.348,-609.624 301.348,-609.624"/>
<text text-anchor="middle" x="406.848" y="-767.024" font-family="Times Roman,serif" font-size="14.00">AuthenticationTokensController</text>
<polyline fill="none" stroke="black" points="289.348,-757.624 524.348,-757.624 "/>
<text text-anchor="start" x="297.348" y="-741.024" font-family="Times Roman,serif" font-size="14.00">create</text>
<text text-anchor="start" x="297.348" y="-723.024" font-family="Times Roman,serif" font-size="14.00">destroy</text>
<text text-anchor="start" x="297.348" y="-705.024" font-family="Times Roman,serif" font-size="14.00">index</text>
<polyline fill="none" stroke="black" points="289.348,-695.624 524.348,-695.624 "/>
<polyline fill="none" stroke="black" points="289.348,-671.624 524.348,-671.624 "/>
<text text-anchor="start" x="297.348" y="-655.024" font-family="Times Roman,serif" font-size="14.00">_layout</text>
<text text-anchor="start" x="297.348" y="-637.024" font-family="Times Roman,serif" font-size="14.00">authentication_token_params</text>
<text text-anchor="start" x="297.348" y="-619.024" font-family="Times Roman,serif" font-size="14.00">set_authentication_token</text>
</g>
<!-- ApplicationController&#45;&gt;AuthenticationTokensController -->
<g id="edge8" class="edge"><title>ApplicationController&#45;&gt;AuthenticationTokensController</title>
<path fill="none" stroke="black" d="M156.375,-480.259C198.636,-516.765 256.46,-566.715 305.902,-609.424"/>
</g>
<!-- RecordsController -->
<g id="node7" class="node"><title>RecordsController</title>
<polyline fill="none" stroke="black" points="24.2959,-1.5 144.296,-1.5 "/>
<path fill="none" stroke="black" d="M144.296,-1.5C150.296,-1.5 156.296,-7.5 156.296,-13.5"/>
<polyline fill="none" stroke="black" points="156.296,-13.5 156.296,-307.5 "/>
<path fill="none" stroke="black" d="M156.296,-307.5C156.296,-313.5 150.296,-319.5 144.296,-319.5"/>
<polyline fill="none" stroke="black" points="144.296,-319.5 24.2959,-319.5 "/>
<path fill="none" stroke="black" d="M24.2959,-319.5C18.2959,-319.5 12.2959,-313.5 12.2959,-307.5"/>
<polyline fill="none" stroke="black" points="12.2959,-307.5 12.2959,-13.5 "/>
<path fill="none" stroke="black" d="M12.2959,-13.5C12.2959,-7.5 18.2959,-1.5 24.2959,-1.5"/>
<text text-anchor="middle" x="84.2959" y="-302.9" font-family="Times Roman,serif" font-size="14.00">RecordsController</text>
<polyline fill="none" stroke="black" points="12.2959,-293.5 156.296,-293.5 "/>
<text text-anchor="start" x="20.2959" y="-276.9" font-family="Times Roman,serif" font-size="14.00">create</text>
<text text-anchor="start" x="20.2959" y="-258.9" font-family="Times Roman,serif" font-size="14.00">destroy</text>
<text text-anchor="start" x="20.2959" y="-240.9" font-family="Times Roman,serif" font-size="14.00">edit</text>
<text text-anchor="start" x="20.2959" y="-222.9" font-family="Times Roman,serif" font-size="14.00">index</text>
<text text-anchor="start" x="20.2959" y="-204.9" font-family="Times Roman,serif" font-size="14.00">new</text>
<text text-anchor="start" x="20.2959" y="-186.9" font-family="Times Roman,serif" font-size="14.00">show</text>
<text text-anchor="start" x="20.2959" y="-168.9" font-family="Times Roman,serif" font-size="14.00">update</text>
<polyline fill="none" stroke="black" points="12.2959,-159.5 156.296,-159.5 "/>
<polyline fill="none" stroke="black" points="12.2959,-135.5 156.296,-135.5 "/>
<text text-anchor="start" x="20.2959" y="-118.9" font-family="Times Roman,serif" font-size="14.00">_layout</text>
<text text-anchor="start" x="20.2959" y="-100.9" font-family="Times Roman,serif" font-size="14.00">from_params</text>
<text text-anchor="start" x="20.2959" y="-82.9" font-family="Times Roman,serif" font-size="14.00">record_params</text>
<text text-anchor="start" x="20.2959" y="-64.9" font-family="Times Roman,serif" font-size="14.00">set_record</text>
<text text-anchor="start" x="20.2959" y="-46.9" font-family="Times Roman,serif" font-size="14.00">set_sensor</text>
<text text-anchor="start" x="20.2959" y="-28.9" font-family="Times Roman,serif" font-size="14.00">time_from_params</text>
<text text-anchor="start" x="20.2959" y="-10.9" font-family="Times Roman,serif" font-size="14.00">to_params</text>
</g>
<!-- ApplicationController&#45;&gt;RecordsController -->
<g id="edge10" class="edge"><title>ApplicationController&#45;&gt;RecordsController</title>
<path fill="none" stroke="black" d="M94.5806,-377.84C93.7706,-360.725 92.8201,-340.638 91.8299,-319.711"/>
</g>
</g>
</svg>
