<?xml version="1.0" encoding="UTF-8" standalone="no"?>
<!DOCTYPE svg PUBLIC "-//W3C//DTD SVG 1.1//EN"
 "http://www.w3.org/Graphics/SVG/1.1/DTD/svg11.dtd">
<!-- Generated by graphviz version 2.26.3 (20100126.1600)
 -->
<!-- Title: models_diagram Pages: 1 -->
<svg width="767pt" height="894pt"
 viewBox="0.00 0.00 767.00 894.00" xmlns="http://www.w3.org/2000/svg" xmlns:xlink="http://www.w3.org/1999/xlink">
<g id="graph1" class="graph" transform="scale(1 1) rotate(0) translate(4 890)">
<title>models_diagram</title>
<polygon fill="white" stroke="white" points="-4,5 -4,-890 764,-890 764,5 -4,5"/>
<!-- _diagram_info -->
<g id="node1" class="node"><title>_diagram_info</title>
<text text-anchor="start" x="8" y="-869.8" font-family="Times Roman,serif" font-size="13.00">Models diagram</text>
<text text-anchor="start" x="8" y="-852.8" font-family="Times Roman,serif" font-size="13.00">Date: Nov 28 2013 &#45; 13:23</text>
<text text-anchor="start" x="8" y="-835.8" font-family="Times Roman,serif" font-size="13.00">Migration version: 20131127110130</text>
<text text-anchor="start" x="8" y="-818.8" font-family="Times Roman,serif" font-size="13.00">Generated by RailRoady 1.1.1</text>
<text text-anchor="start" x="8" y="-801.8" font-family="Times Roman,serif" font-size="13.00">http://railroady.prestonlee.com</text>
</g>
<!-- Unit -->
<g id="node2" class="node"><title>Unit</title>
<polyline fill="none" stroke="black" points="75.5,-478 216.5,-478 "/>
<path fill="none" stroke="black" d="M216.5,-478C222.5,-478 228.5,-484 228.5,-490"/>
<polyline fill="none" stroke="black" points="228.5,-490 228.5,-608 "/>
<path fill="none" stroke="black" d="M228.5,-608C228.5,-614 222.5,-620 216.5,-620"/>
<polyline fill="none" stroke="black" points="216.5,-620 75.5,-620 "/>
<path fill="none" stroke="black" d="M75.5,-620C69.5,-620 63.5,-614 63.5,-608"/>
<polyline fill="none" stroke="black" points="63.5,-608 63.5,-490 "/>
<path fill="none" stroke="black" d="M63.5,-490C63.5,-484 69.5,-478 75.5,-478"/>
<text text-anchor="middle" x="146" y="-603.4" font-family="Times Roman,serif" font-size="14.00">Unit</text>
<polyline fill="none" stroke="black" points="63.5,-594 228.5,-594 "/>
<text text-anchor="start" x="71.5" y="-577.4" font-family="Times Roman,serif" font-size="14.00">id :integer</text>
<text text-anchor="start" x="71.5" y="-559.4" font-family="Times Roman,serif" font-size="14.00">name :string</text>
<text text-anchor="start" x="71.5" y="-541.4" font-family="Times Roman,serif" font-size="14.00">symbol :string</text>
<text text-anchor="start" x="71.5" y="-523.4" font-family="Times Roman,serif" font-size="14.00">type_id :integer</text>
<text text-anchor="start" x="71.5" y="-505.4" font-family="Times Roman,serif" font-size="14.00">created_at :datetime</text>
<text text-anchor="start" x="71.5" y="-487.4" font-family="Times Roman,serif" font-size="14.00">updated_at :datetime</text>
</g>
<!-- Type -->
<g id="node3" class="node"><title>Type</title>
<polyline fill="none" stroke="black" points="240.5,-10 381.5,-10 "/>
<path fill="none" stroke="black" d="M381.5,-10C387.5,-10 393.5,-16 393.5,-22"/>
<polyline fill="none" stroke="black" points="393.5,-22 393.5,-104 "/>
<path fill="none" stroke="black" d="M393.5,-104C393.5,-110 387.5,-116 381.5,-116"/>
<polyline fill="none" stroke="black" points="381.5,-116 240.5,-116 "/>
<path fill="none" stroke="black" d="M240.5,-116C234.5,-116 228.5,-110 228.5,-104"/>
<polyline fill="none" stroke="black" points="228.5,-104 228.5,-22 "/>
<path fill="none" stroke="black" d="M228.5,-22C228.5,-16 234.5,-10 240.5,-10"/>
<text text-anchor="middle" x="311" y="-99.4" font-family="Times Roman,serif" font-size="14.00">Type</text>
<polyline fill="none" stroke="black" points="228.5,-90 393.5,-90 "/>
<text text-anchor="start" x="236.5" y="-73.4" font-family="Times Roman,serif" font-size="14.00">id :integer</text>
<text text-anchor="start" x="236.5" y="-55.4" font-family="Times Roman,serif" font-size="14.00">name :string</text>
<text text-anchor="start" x="236.5" y="-37.4" font-family="Times Roman,serif" font-size="14.00">created_at :datetime</text>
<text text-anchor="start" x="236.5" y="-19.4" font-family="Times Roman,serif" font-size="14.00">updated_at :datetime</text>
</g>
<!-- Record -->
<g id="node4" class="node"><title>Record</title>
<polyline fill="none" stroke="black" points="504.5,-1 645.5,-1 "/>
<path fill="none" stroke="black" d="M645.5,-1C651.5,-1 657.5,-7 657.5,-13"/>
<polyline fill="none" stroke="black" points="657.5,-13 657.5,-113 "/>
<path fill="none" stroke="black" d="M657.5,-113C657.5,-119 651.5,-125 645.5,-125"/>
<polyline fill="none" stroke="black" points="645.5,-125 504.5,-125 "/>
<path fill="none" stroke="black" d="M504.5,-125C498.5,-125 492.5,-119 492.5,-113"/>
<polyline fill="none" stroke="black" points="492.5,-113 492.5,-13 "/>
<path fill="none" stroke="black" d="M492.5,-13C492.5,-7 498.5,-1 504.5,-1"/>
<text text-anchor="middle" x="575" y="-108.4" font-family="Times Roman,serif" font-size="14.00">Record</text>
<polyline fill="none" stroke="black" points="492.5,-99 657.5,-99 "/>
<text text-anchor="start" x="500.5" y="-82.4" font-family="Times Roman,serif" font-size="14.00">id :integer</text>
<text text-anchor="start" x="500.5" y="-64.4" font-family="Times Roman,serif" font-size="14.00">value :decimal</text>
<text text-anchor="start" x="500.5" y="-46.4" font-family="Times Roman,serif" font-size="14.00">sensor_id :string</text>
<text text-anchor="start" x="500.5" y="-28.4" font-family="Times Roman,serif" font-size="14.00">created_at :datetime</text>
<text text-anchor="start" x="500.5" y="-10.4" font-family="Times Roman,serif" font-size="14.00">updated_at :datetime</text>
</g>
<!-- User -->
<g id="node5" class="node"><title>User</title>
<polyline fill="none" stroke="black" points="334,-343 564,-343 "/>
<path fill="none" stroke="black" d="M564,-343C570,-343 576,-349 576,-355"/>
<polyline fill="none" stroke="black" points="576,-355 576,-743 "/>
<path fill="none" stroke="black" d="M576,-743C576,-749 570,-755 564,-755"/>
<polyline fill="none" stroke="black" points="564,-755 334,-755 "/>
<path fill="none" stroke="black" d="M334,-755C328,-755 322,-749 322,-743"/>
<polyline fill="none" stroke="black" points="322,-743 322,-355 "/>
<path fill="none" stroke="black" d="M322,-355C322,-349 328,-343 334,-343"/>
<text text-anchor="middle" x="449" y="-738.4" font-family="Times Roman,serif" font-size="14.00">User</text>
<polyline fill="none" stroke="black" points="322,-729 576,-729 "/>
<text text-anchor="start" x="330" y="-712.4" font-family="Times Roman,serif" font-size="14.00">id :integer</text>
<text text-anchor="start" x="330" y="-694.4" font-family="Times Roman,serif" font-size="14.00">email :string</text>
<text text-anchor="start" x="330" y="-676.4" font-family="Times Roman,serif" font-size="14.00">encrypted_password :string</text>
<text text-anchor="start" x="330" y="-658.4" font-family="Times Roman,serif" font-size="14.00">reset_password_token :string</text>
<text text-anchor="start" x="330" y="-640.4" font-family="Times Roman,serif" font-size="14.00">reset_password_sent_at :datetime</text>
<text text-anchor="start" x="330" y="-622.4" font-family="Times Roman,serif" font-size="14.00">remember_created_at :datetime</text>
<text text-anchor="start" x="330" y="-604.4" font-family="Times Roman,serif" font-size="14.00">sign_in_count :integer</text>
<text text-anchor="start" x="330" y="-586.4" font-family="Times Roman,serif" font-size="14.00">current_sign_in_at :datetime</text>
<text text-anchor="start" x="330" y="-568.4" font-family="Times Roman,serif" font-size="14.00">last_sign_in_at :datetime</text>
<text text-anchor="start" x="330" y="-550.4" font-family="Times Roman,serif" font-size="14.00">current_sign_in_ip :string</text>
<text text-anchor="start" x="330" y="-532.4" font-family="Times Roman,serif" font-size="14.00">last_sign_in_ip :string</text>
<text text-anchor="start" x="330" y="-514.4" font-family="Times Roman,serif" font-size="14.00">confirmation_token :string</text>
<text text-anchor="start" x="330" y="-496.4" font-family="Times Roman,serif" font-size="14.00">confirmed_at :datetime</text>
<text text-anchor="start" x="330" y="-478.4" font-family="Times Roman,serif" font-size="14.00">confirmation_sent_at :datetime</text>
<text text-anchor="start" x="330" y="-460.4" font-family="Times Roman,serif" font-size="14.00">unconfirmed_email :string</text>
<text text-anchor="start" x="330" y="-442.4" font-family="Times Roman,serif" font-size="14.00">failed_attempts :integer</text>
<text text-anchor="start" x="330" y="-424.4" font-family="Times Roman,serif" font-size="14.00">unlock_token :string</text>
<text text-anchor="start" x="330" y="-406.4" font-family="Times Roman,serif" font-size="14.00">locked_at :datetime</text>
<text text-anchor="start" x="330" y="-388.4" font-family="Times Roman,serif" font-size="14.00">created_at :datetime</text>
<text text-anchor="start" x="330" y="-370.4" font-family="Times Roman,serif" font-size="14.00">updated_at :datetime</text>
<text text-anchor="start" x="330" y="-352.4" font-family="Times Roman,serif" font-size="14.00">username :string</text>
</g>
<!-- Sensor -->
<g id="node7" class="node"><title>Sensor</title>
<polyline fill="none" stroke="black" points="295.5,-163 436.5,-163 "/>
<path fill="none" stroke="black" d="M436.5,-163C442.5,-163 448.5,-169 448.5,-175"/>
<polyline fill="none" stroke="black" points="448.5,-175 448.5,-293 "/>
<path fill="none" stroke="black" d="M448.5,-293C448.5,-299 442.5,-305 436.5,-305"/>
<polyline fill="none" stroke="black" points="436.5,-305 295.5,-305 "/>
<path fill="none" stroke="black" d="M295.5,-305C289.5,-305 283.5,-299 283.5,-293"/>
<polyline fill="none" stroke="black" points="283.5,-293 283.5,-175 "/>
<path fill="none" stroke="black" d="M283.5,-175C283.5,-169 289.5,-163 295.5,-163"/>
<text text-anchor="middle" x="366" y="-288.4" font-family="Times Roman,serif" font-size="14.00">Sensor</text>
<polyline fill="none" stroke="black" points="283.5,-279 448.5,-279 "/>
<text text-anchor="start" x="291.5" y="-262.4" font-family="Times Roman,serif" font-size="14.00">id :integer</text>
<text text-anchor="start" x="291.5" y="-244.4" font-family="Times Roman,serif" font-size="14.00">name :string</text>
<text text-anchor="start" x="291.5" y="-226.4" font-family="Times Roman,serif" font-size="14.00">unit_id :string</text>
<text text-anchor="start" x="291.5" y="-208.4" font-family="Times Roman,serif" font-size="14.00">created_at :datetime</text>
<text text-anchor="start" x="291.5" y="-190.4" font-family="Times Roman,serif" font-size="14.00">updated_at :datetime</text>
<text text-anchor="start" x="291.5" y="-172.4" font-family="Times Roman,serif" font-size="14.00">user_id :integer</text>
</g>
<!-- User&#45;&gt;Sensor -->
<g id="edge8" class="edge"><title>User&#45;&gt;Sensor</title>
<path fill="none" stroke="#50cb02" d="M392.568,-334.83C390.771,-328.012 389.018,-321.356 387.323,-314.926"/>
<ellipse fill="none" stroke="#50cb02" cx="393.661" cy="-338.978" rx="4.00001" ry="4.00001"/>
<polygon fill="#50cb02" stroke="#50cb02" points="387.26,-314.686 389.064,-303.869 385.986,-309.851 384.712,-305.016 384.712,-305.016 384.712,-305.016 385.986,-309.851 380.361,-306.162 387.26,-314.686 387.26,-314.686"/>
</g>
<!-- AuthenticationToken -->
<g id="node8" class="node"><title>AuthenticationToken</title>
<polyline fill="none" stroke="black" points="477.5,-163 618.5,-163 "/>
<path fill="none" stroke="black" d="M618.5,-163C624.5,-163 630.5,-169 630.5,-175"/>
<polyline fill="none" stroke="black" points="630.5,-175 630.5,-293 "/>
<path fill="none" stroke="black" d="M630.5,-293C630.5,-299 624.5,-305 618.5,-305"/>
<polyline fill="none" stroke="black" points="618.5,-305 477.5,-305 "/>
<path fill="none" stroke="black" d="M477.5,-305C471.5,-305 465.5,-299 465.5,-293"/>
<polyline fill="none" stroke="black" points="465.5,-293 465.5,-175 "/>
<path fill="none" stroke="black" d="M465.5,-175C465.5,-169 471.5,-163 477.5,-163"/>
<text text-anchor="middle" x="548" y="-288.4" font-family="Times Roman,serif" font-size="14.00">AuthenticationToken</text>
<polyline fill="none" stroke="black" points="465.5,-279 630.5,-279 "/>
<text text-anchor="start" x="473.5" y="-262.4" font-family="Times Roman,serif" font-size="14.00">id :integer</text>
<text text-anchor="start" x="473.5" y="-244.4" font-family="Times Roman,serif" font-size="14.00">token :string</text>
<text text-anchor="start" x="473.5" y="-226.4" font-family="Times Roman,serif" font-size="14.00">valid_until :datetime</text>
<text text-anchor="start" x="473.5" y="-208.4" font-family="Times Roman,serif" font-size="14.00">user_id :integer</text>
<text text-anchor="start" x="473.5" y="-190.4" font-family="Times Roman,serif" font-size="14.00">created_at :datetime</text>
<text text-anchor="start" x="473.5" y="-172.4" font-family="Times Roman,serif" font-size="14.00">updated_at :datetime</text>
</g>
<!-- User&#45;&gt;AuthenticationToken -->
<g id="edge10" class="edge"><title>User&#45;&gt;AuthenticationToken</title>
<path fill="none" stroke="#7898d0" d="M516.214,-335.136C518.432,-328.081 520.594,-321.201 522.681,-314.562"/>
<ellipse fill="none" stroke="#7898d0" cx="514.991" cy="-339.03" rx="4.00001" ry="4.00001"/>
<polygon fill="#7898d0" stroke="#7898d0" points="522.682,-314.556 529.974,-306.365 524.182,-309.786 525.681,-305.016 525.681,-305.016 525.681,-305.016 524.182,-309.786 521.388,-303.667 522.682,-314.556 522.682,-314.556"/>
</g>
<!-- Ability -->
<g id="node6" class="node"><title>Ability</title>
<polygon fill="none" stroke="black" points="686,-523 686,-575 746,-575 746,-523 686,-523"/>
<text text-anchor="middle" x="716" y="-558.4" font-family="Times Roman,serif" font-size="14.00">Ability</text>
<polyline fill="none" stroke="black" points="686,-549 746,-549 "/>
<text text-anchor="middle" x="716" y="-532.4" font-family="Times Roman,serif" font-size="14.00"> </text>
</g>
<!-- Sensor&#45;&gt;Type -->
<g id="edge16" class="edge"><title>Sensor&#45;&gt;Type</title>
<path fill="none" stroke="#b8559a" d="M340.655,-155.199C337.258,-144.639 333.818,-133.943 330.542,-123.759"/>
<ellipse fill="none" stroke="#b8559a" cx="341.928" cy="-159.158" rx="4.00001" ry="4.00001"/>
<ellipse fill="#b8559a" stroke="#b8559a" cx="329.298" cy="-119.889" rx="4.00001" ry="4.00001"/>
</g>
<!-- Sensor&#45;&gt;Record -->
<g id="edge18" class="edge"><title>Sensor&#45;&gt;Record</title>
<path fill="none" stroke="#2b144a" d="M454.882,-161.278C466.959,-151.397 479.32,-141.284 491.301,-131.481"/>
<ellipse fill="none" stroke="#2b144a" cx="451.698" cy="-163.883" rx="4.00002" ry="4.00002"/>
<polygon fill="#2b144a" stroke="#2b144a" points="491.373,-131.423 501.962,-128.573 495.242,-128.256 499.112,-125.09 499.112,-125.09 499.112,-125.09 495.242,-128.256 496.263,-121.607 491.373,-131.423 491.373,-131.423"/>
</g>
<!-- ActiveRecord::Base -->
<g id="node9" class="node"><title>ActiveRecord::Base</title>
<ellipse fill="none" stroke="black" cx="372" cy="-839" rx="103.945" ry="18.3848"/>
<text text-anchor="middle" x="372" y="-835.4" font-family="Times Roman,serif" font-size="14.00">ActiveRecord::Base</text>
</g>
<!-- ActiveRecord::Base&#45;&gt;Unit -->
<g id="edge2" class="edge"><title>ActiveRecord::Base&#45;&gt;Unit</title>
<path fill="none" stroke="black" d="M333.402,-821.761C305.076,-807.505 267.291,-784.929 242,-756 207.713,-716.782 183.32,-663.235 167.704,-620.429"/>
</g>
<!-- ActiveRecord::Base&#45;&gt;Type -->
<g id="edge4" class="edge"><title>ActiveRecord::Base&#45;&gt;Type</title>
<path fill="none" stroke="black" d="M337.777,-821.233C314.485,-807.05 285.522,-784.796 272,-756 215.893,-636.516 251.015,-291.804 275,-162 277.825,-146.713 282.742,-130.664 288.052,-116.043"/>
</g>
<!-- ActiveRecord::Base&#45;&gt;Record -->
<g id="edge6" class="edge"><title>ActiveRecord::Base&#45;&gt;Record</title>
<path fill="none" stroke="black" d="M442.102,-825.248C508.701,-810.619 601.871,-785.537 624,-756 703.169,-650.324 676.371,-288.643 639,-162 635.264,-149.339 629.348,-136.773 622.587,-125.059"/>
</g>
<!-- ActiveRecord::Base&#45;&gt;User -->
<g id="edge12" class="edge"><title>ActiveRecord::Base&#45;&gt;User</title>
<path fill="none" stroke="black" d="M376.934,-820.418C380.967,-805.229 387.144,-781.964 394.221,-755.312"/>
</g>
<!-- ActiveRecord::Base&#45;&gt;Sensor -->
<g id="edge20" class="edge"><title>ActiveRecord::Base&#45;&gt;Sensor</title>
<path fill="none" stroke="black" d="M353.893,-820.773C339.683,-805.095 321.01,-781.095 313,-756 257.047,-580.714 271.391,-521.234 313,-342 315.857,-329.691 320.324,-317.168 325.481,-305.22"/>
</g>
<!-- ActiveRecord::Base&#45;&gt;AuthenticationToken -->
<g id="edge22" class="edge"><title>ActiveRecord::Base&#45;&gt;AuthenticationToken</title>
<path fill="none" stroke="black" d="M431.836,-823.796C488.359,-808.08 567.083,-782.211 585,-756 678.312,-619.494 620.245,-413.247 578.878,-305.416"/>
</g>
<!-- Object -->
<g id="node16" class="node"><title>Object</title>
<ellipse fill="none" stroke="black" cx="716" cy="-839" rx="43.1335" ry="18.3848"/>
<text text-anchor="middle" x="716" y="-835.4" font-family="Times Roman,serif" font-size="14.00">Object</text>
</g>
<!-- Object&#45;&gt;Ability -->
<g id="edge14" class="edge"><title>Object&#45;&gt;Ability</title>
<path fill="none" stroke="black" d="M716,-820.418C716,-770.413 716,-632.881 716,-575.103"/>
</g>
</g>
</svg>
