<?xml version="1.0" encoding="UTF-8" standalone="no"?>
<!DOCTYPE svg PUBLIC "-//W3C//DTD SVG 1.1//EN"
 "http://www.w3.org/Graphics/SVG/1.1/DTD/svg11.dtd">
<!-- Generated by graphviz version 2.26.3 (20100126.1600)
 -->
<!-- Title: models_diagram Pages: 1 -->
<svg width="765pt" height="324pt"
 viewBox="0.00 0.00 765.00 324.00" xmlns="http://www.w3.org/2000/svg" xmlns:xlink="http://www.w3.org/1999/xlink">
<g id="graph1" class="graph" transform="scale(1 1) rotate(0) translate(4 320)">
<title>models_diagram</title>
<polygon fill="white" stroke="white" points="-4,5 -4,-320 762,-320 762,5 -4,5"/>
<!-- _diagram_info -->
<g id="node1" class="node"><title>_diagram_info</title>
<text text-anchor="start" x="8" y="-299.8" font-family="Times Roman,serif" font-size="13.00">Models diagram</text>
<text text-anchor="start" x="8" y="-282.8" font-family="Times Roman,serif" font-size="13.00">Date: Nov 28 2013 &#45; 13:23</text>
<text text-anchor="start" x="8" y="-265.8" font-family="Times Roman,serif" font-size="13.00">Migration version: 20131127110130</text>
<text text-anchor="start" x="8" y="-248.8" font-family="Times Roman,serif" font-size="13.00">Generated by RailRoady 1.1.1</text>
<text text-anchor="start" x="8" y="-231.8" font-family="Times Roman,serif" font-size="13.00">http://railroady.prestonlee.com</text>
</g>
<!-- Unit -->
<g id="node2" class="node"><title>Unit</title>
<ellipse fill="none" stroke="black" cx="208" cy="-167" rx="32.0265" ry="18.3848"/>
<text text-anchor="middle" x="208" y="-163.4" font-family="Times Roman,serif" font-size="14.00">Unit</text>
</g>
<!-- Type -->
<g id="node3" class="node"><title>Type</title>
<ellipse fill="none" stroke="black" cx="304" cy="-19" rx="33.9411" ry="18.3848"/>
<text text-anchor="middle" x="304" y="-15.4" font-family="Times Roman,serif" font-size="14.00">Type</text>
</g>
<!-- Record -->
<g id="node4" class="node"><title>Record</title>
<ellipse fill="none" stroke="black" cx="528" cy="-19" rx="44.0472" ry="18.3848"/>
<text text-anchor="middle" x="528" y="-15.4" font-family="Times Roman,serif" font-size="14.00">Record</text>
</g>
<!-- User -->
<g id="node5" class="node"><title>User</title>
<ellipse fill="none" stroke="black" cx="403" cy="-167" rx="33.9411" ry="18.3848"/>
<text text-anchor="middle" x="403" y="-163.4" font-family="Times Roman,serif" font-size="14.00">User</text>
</g>
<!-- Sensor -->
<g id="node7" class="node"><title>Sensor</title>
<ellipse fill="none" stroke="black" cx="341" cy="-93" rx="44.7575" ry="18.3848"/>
<text text-anchor="middle" x="341" y="-89.4" font-family="Times Roman,serif" font-size="14.00">Sensor</text>
</g>
<!-- User&#45;&gt;Sensor -->
<g id="edge8" class="edge"><title>User&#45;&gt;Sensor</title>
<path fill="none" stroke="#db1a08" d="M383.278,-143.461C376.58,-135.467 369.069,-126.501 362.256,-118.37"/>
<ellipse fill="none" stroke="#db1a08" cx="386.051" cy="-146.771" rx="4.00002" ry="4.00002"/>
<polygon fill="#db1a08" stroke="#db1a08" points="362.155,-118.249 359.182,-107.694 358.944,-114.416 355.732,-110.584 355.732,-110.584 355.732,-110.584 358.944,-114.416 352.283,-113.474 362.155,-118.249 362.155,-118.249"/>
</g>
<!-- AuthenticationToken -->
<g id="node8" class="node"><title>AuthenticationToken</title>
<ellipse fill="none" stroke="black" cx="516" cy="-93" rx="111.93" ry="18.3848"/>
<text text-anchor="middle" x="516" y="-89.4" font-family="Times Roman,serif" font-size="14.00">AuthenticationToken</text>
</g>
<!-- User&#45;&gt;AuthenticationToken -->
<g id="edge10" class="edge"><title>User&#45;&gt;AuthenticationToken</title>
<path fill="none" stroke="#4a2f27" d="M431.905,-148.071C446.391,-138.585 464.083,-126.999 479.496,-116.905"/>
<ellipse fill="none" stroke="#4a2f27" cx="428.134" cy="-150.541" rx="4.00002" ry="4.00002"/>
<polygon fill="#4a2f27" stroke="#4a2f27" points="479.901,-116.64 490.732,-114.926 484.084,-113.901 488.267,-111.162 488.267,-111.162 488.267,-111.162 484.084,-113.901 485.801,-107.397 479.901,-116.64 479.901,-116.64"/>
</g>
<!-- Ability -->
<g id="node6" class="node"><title>Ability</title>
<polygon fill="none" stroke="black" points="744,-185 684,-185 684,-149 744,-149 744,-185"/>
<text text-anchor="middle" x="714" y="-163.4" font-family="Times Roman,serif" font-size="14.00">Ability</text>
</g>
<!-- Sensor&#45;&gt;Type -->
<g id="edge16" class="edge"><title>Sensor&#45;&gt;Type</title>
<path fill="none" stroke="#ca3a3f" d="M328.185,-67.3701C324.443,-59.8859 320.357,-51.7143 316.627,-44.2536"/>
<ellipse fill="none" stroke="#ca3a3f" cx="330.065" cy="-71.1301" rx="4.00002" ry="4.00002"/>
<ellipse fill="#ca3a3f" stroke="#ca3a3f" cx="314.83" cy="-40.6594" rx="4.00002" ry="4.00002"/>
</g>
<!-- Sensor&#45;&gt;Record -->
<g id="edge18" class="edge"><title>Sensor&#45;&gt;Record</title>
<path fill="none" stroke="#9db95f" d="M381.087,-77.1367C412.141,-64.8478 455.024,-47.8783 486.443,-35.4449"/>
<ellipse fill="none" stroke="#9db95f" cx="377.292" cy="-78.6383" rx="4.00001" ry="4.00001"/>
<polygon fill="#9db95f" stroke="#9db95f" points="486.502,-35.4218 497.456,-35.9264 491.151,-33.5819 495.8,-31.7421 495.8,-31.7421 495.8,-31.7421 491.151,-33.5819 494.145,-27.5578 486.502,-35.4218 486.502,-35.4218"/>
</g>
<!-- ActiveRecord::Base -->
<g id="node9" class="node"><title>ActiveRecord::Base</title>
<ellipse fill="none" stroke="black" cx="372" cy="-269" rx="103.945" ry="18.3848"/>
<text text-anchor="middle" x="372" y="-265.4" font-family="Times Roman,serif" font-size="14.00">ActiveRecord::Base</text>
</g>
<!-- ActiveRecord::Base&#45;&gt;Unit -->
<g id="edge2" class="edge"><title>ActiveRecord::Base&#45;&gt;Unit</title>
<path fill="none" stroke="black" d="M343.058,-250.999C310.689,-230.868 258.992,-198.714 229.841,-180.584"/>
</g>
<!-- ActiveRecord::Base&#45;&gt;Type -->
<g id="edge4" class="edge"><title>ActiveRecord::Base&#45;&gt;Type</title>
<path fill="none" stroke="black" d="M357.935,-250.473C337.563,-222.349 300.777,-166.384 287,-112 280.511,-86.3837 288.908,-56.2042 296.033,-37.3331"/>
</g>
<!-- ActiveRecord::Base&#45;&gt;Record -->
<g id="edge6" class="edge"><title>ActiveRecord::Base&#45;&gt;Record</title>
<path fill="none" stroke="black" d="M429.499,-253.493C493.187,-232.889 592.718,-189.705 637,-112 645.362,-97.3265 645.853,-88.3828 637,-74 621.834,-49.3605 591.852,-35.3599 567.165,-27.658"/>
</g>
<!-- ActiveRecord::Base&#45;&gt;User -->
<g id="edge12" class="edge"><title>ActiveRecord::Base&#45;&gt;User</title>
<path fill="none" stroke="black" d="M377.686,-250.292C383.279,-231.888 391.769,-203.953 397.35,-185.59"/>
</g>
<!-- ActiveRecord::Base&#45;&gt;Sensor -->
<g id="edge20" class="edge"><title>ActiveRecord::Base&#45;&gt;Sensor</title>
<path fill="none" stroke="black" d="M368.741,-250.498C362.787,-216.695 350.218,-145.333 344.262,-111.519"/>
</g>
<!-- ActiveRecord::Base&#45;&gt;AuthenticationToken -->
<g id="edge22" class="edge"><title>ActiveRecord::Base&#45;&gt;AuthenticationToken</title>
<path fill="none" stroke="black" d="M389.204,-250.597C404.499,-234.028 427.274,-208.843 446,-186 466.627,-160.838 488.995,-130.542 502.757,-111.521"/>
</g>
<!-- Object -->
<g id="node16" class="node"><title>Object</title>
<ellipse fill="none" stroke="black" cx="714" cy="-269" rx="43.1335" ry="18.3848"/>
<text text-anchor="middle" x="714" y="-265.4" font-family="Times Roman,serif" font-size="14.00">Object</text>
</g>
<!-- Object&#45;&gt;Ability -->
<g id="edge14" class="edge"><title>Object&#45;&gt;Ability</title>
<path fill="none" stroke="black" d="M714,-250.292C714,-231.773 714,-203.603 714,-185.247"/>
</g>
</g>
</svg>
